<svg viewBox="0 0 200 200" width="20" height="20" xmlns="http://www.w3.org/2000/svg" role="presentation"><path d="M155 99.91h-15v-5a5 5 0 00-5-5H35a5 5 0 00-5 5v37a48 48 0 0048 48h14a48.15 48.15 0 0045.2-31.8c23.68-5.89 32.79-8.6 32.8-33.15a15 15 0 00-15-15.05zm5 20.5c0 11.5-11.4 12.3-20 14.5v-25c18 0 20-2 20 10.5zm-45.1-40.5a5.22 5.22 0 004.2-2.2c4.5-6.6 6.4-13.3 5.8-19.9a28.42 28.42 0 00-2.9-9.9a21.83 21.83 0 01-2.1-6.7c-.4-4.3 1-8.7 4.2-13.4a5 5 0 00-8.3-5.5c-4.5 6.6-6.4 13.3-5.8 19.9a28.42 28.42 0 002.9 9.9a21.83 21.83 0 012.1 6.7c.4 4.3-1 8.7-4.2 13.4a5 5 0 001.4 6.9a5.3 5.3 0 002.7.8zm-30 0a5.22 5.22 0 004.2-2.2c4.5-6.6 6.4-13.3 5.8-19.9a28.42 28.42 0 00-2.9-9.9a21.83 21.83 0 01-2.1-6.7c-.4-4.3 1-8.7 4.2-13.4a5 5 0 00-8.3-5.5c-4.5 6.6-6.4 13.3-5.8 19.9a28.42 28.42 0 002.9 9.9a21.83 21.83 0 012.1 6.7c.4 4.3-1 8.7-4.2 13.4a5 5 0 001.4 6.9a5.3 5.3 0 002.7.8zm-29.8 0a5.22 5.22 0 004.2-2.2c4.5-6.6 6.4-13.3 5.8-19.9a28.42 28.42 0 00-2.9-9.9a21.83 21.83 0 01-2.1-6.7c-.4-4.3 1-8.7 4.2-13.4a5 5 0 10-8.3-5.5c-4.5 6.6-6.4 13.3-5.8 19.9a28.42 28.42 0 002.9 9.9a21.83 21.83 0 012.1 6.7c.4 4.3-1 8.7-4.2 13.4a4.94 4.94 0 004.1 7.7z"/></svg>