<svg viewBox="0 0 200 200" width="100%" height="100%" xmlns="http://www.w3.org/2000/svg" role="presentation" style="width: inherit; height: inherit; line-height: inherit; color: inherit;"><path d="M58.67 36.78h0c13.42 0 22.91 8.58 28.5 15.78l9.87 12.71a4.163 4.163 0 006.58 0l9.87-12.71c5.59-7.2 15.07-15.78 28.49-15.78c.5 0 1 .01 1.52.03c7.96.35 15.45 3.73 21.1 9.52c5.62 5.76 8.72 13.28 8.72 21.19c0 14.73-9.73 33.18-28.14 53.34c-16.52 18.08-31 31.94-44.12 42.26c-.43.33-.65.33-.73.33c-.08 0-.39-.07-.52-.16c-13.58-10.76-28.08-24.63-44.33-42.42c-18.41-20.16-28.15-38.61-28.15-53.34c0-7.9 3.1-15.43 8.72-21.19c5.65-5.79 13.14-9.17 21.11-9.52c.51-.02 1.01-.03 1.5-.03m83.32-16.67c-20.29 0-34.08 12.46-41.66 22.22c-7.58-9.76-21.37-22.22-41.66-22.22c-.74 0-1.5.02-2.26.05c-12.27.54-23.68 5.7-32.29 14.53c-8.72 8.93-13.45 20.56-13.45 32.83c0 19.27 10.98 41.01 32.51 64.58c17.11 18.73 32.29 33.15 46.28 44.24c3.23 2.48 7.1 3.77 10.87 3.77s7.64-1.29 10.87-3.77c14.1-11.09 29.17-25.51 46.28-44.24c21.53-23.57 32.51-45.32 32.51-64.58c0-12.27-4.74-23.9-13.46-32.83c-8.61-8.83-20.13-13.99-32.29-14.53c-.76-.03-1.51-.05-2.26-.05h0z"/></svg>