<svg class="uitk-icon uitk-icon-leading" aria-label="Show all 9 images for Premium Apartment, 1 King Bed, Kitchen" role="img" viewBox="0 0 24 24" xmlns="http://www.w3.org/2000/svg" xmlns:xlink="http://www.w3.org/1999/xlink"><title id="photo_library-property-offers-media-carousel-2-title">Show all 9 images for Premium Apartment, 1 King Bed, Kitchen</title><path fill-rule="evenodd" d="m12.99 13.5-1.36-1.83a.5.5 0 0 0-.78 0l-1.74 2.52a.5.5 0 0 0 .39.81h9a.5.5 0 0 0 .4-.8l-2.55-4a.5.5 0 0 0-.8 0L13 13.5zM2 5a1 1 0 0 0-1 1v15c0 1.1.9 2 2 2h15a1 1 0 0 0 1-1 1 1 0 0 0-1-1H4a1 1 0 0 1-1-1V6a1 1 0 0 0-1-1zm19-4H7a2 2 0 0 0-2 2v14c0 1.1.9 2 2 2h14a2 2 0 0 0 2-2V3a2 2 0 0 0-2-2zm-1 16H8a1 1 0 0 1-1-1V4a1 1 0 0 1 1-1h12a1 1 0 0 1 1 1v12a1 1 0 0 1-1 1z" clip-rule="evenodd"/></svg>