<svg viewBox="0 0 200 200" width="20" height="20" xmlns="http://www.w3.org/2000/svg" role="presentation"><path d="M190 110h-15v45.019c0 8.274-6.708 14.981-14.981 14.981c-.218 0 2.536 20-15.069 20H140v-20H60v4.949C60 183.262 53.261 190 44.949 190H40v-20c-8.351 0-15-6.758-15-14.981V110H10c0-8.284 6.716-15 15-15h150c8.284 0 15 6.716 15 15zm-57.69-63.341c.225-.997.129-14.159 12.69-14.159c6.893 0 12.5 5.607 12.5 12.5v35h15V45c0-15.163-12.336-27.5-27.5-27.5S117.5 29.837 117.5 45c0 1.031-16.291 2.343-22.5 20h55c-2.972-8.666-9.592-15.334-17.69-18.341z"/></svg>