<svg class="uitk-icon uitk-spacing uitk-spacing-padding-inlineend-two" aria-hidden="true" viewBox="0 0 24 24" xmlns="http://www.w3.org/2000/svg" xmlns:xlink="http://www.w3.org/1999/xlink"><path fill-rule="evenodd" d="M9.55 16.45c-.2.2-.21.55.02.73a4.01 4.01 0 0 0 5.61-5.61c-.18-.23-.53-.23-.73-.02l-4.9 4.9zM18 2.01 6 2a2 2 0 0 0-2 2v16a2 2 0 0 0 2 2h12a2 2 0 0 0 2-2V4c0-1.11-.89-1.99-2-1.99zM10 4a1 1 0 0 1 1 1 1 1 0 0 1-1 1 1 1 0 0 1-1-1 1 1 0 0 1 1-1zM7 4a1 1 0 0 1 1 1 1 1 0 0 1-1 1 1 1 0 0 1-1-1 1 1 0 0 1 1-1zm5 16a6 6 0 1 1 .01-12.01A6 6 0 0 1 12 20z" clip-rule="evenodd"/></svg>