<svg class="uitk-icon uitk-icon-xsmall uitk-icon-default-theme" aria-hidden="true" viewBox="0 0 24 24" xmlns="http://www.w3.org/2000/svg" xmlns:xlink="http://www.w3.org/1999/xlink"><path fill-rule="evenodd" d="M4.5 11.5a2.5 2.5 0 1 1 0-5 2.5 2.5 0 0 1 0 5zm4.5-4a2.5 2.5 0 1 1 0-5 2.5 2.5 0 0 1 0 5zm6 0a2.5 2.5 0 1 1 0-5 2.5 2.5 0 0 1 0 5zm4.5 4a2.5 2.5 0 1 1 0-5 2.5 2.5 0 0 1 0 5zm-2.15 2.86c1.3 1.31 2.92 2.76 2.6 4.8a3.15 3.15 0 0 1-2.32 2.32c-.73.14-3.06-.44-5.54-.44h-.18c-2.48 0-4.81.59-5.54.44a3.14 3.14 0 0 1-2.33-2.32c-.3-2.03 1.3-3.48 2.62-4.79l2.48-2.91a4.3 4.3 0 0 1 1.75-1.32c.1-.04.22-.07.33-.09.26-.05.53-.05.79-.05s.53 0 .78.04l.33.09c.7.24 1.29.78 1.75 1.32l2.48 2.91z" clip-rule="evenodd"/></svg>