<svg viewBox="0 0 200 200" width="100%" height="100%" xmlns="http://www.w3.org/2000/svg" role="presentation" style="width: inherit; height: inherit; line-height: inherit; color: inherit;"><path d="M83.991 152.874c-25.807-4.021-55.332-30.875-30.508-94.511c.984-2.527 4.374-2.845 5.694-.597c3.459 5.875 8.057 12.741 13.333 18.587c-10.005 27.933-11.891 58.043 11.481 76.521zm-50.347-52.465c-.493-.776-9.167-14.447-11.845-18.477c-6.442 38.844 2.038 69.78 41.466 74.068c-17.935-10.351-30.318-29.556-29.621-55.591zm116.672-42.046c-.469-1.206-1.519-1.994-2.804-2.092c-4.007-.348-3.338 5.521-15.704 19.502c10.531 28.92 11.291 58.58-12.796 77.336c22.147-3.045 58.028-26.227 31.304-94.746zm27.97 23.667c-2.282 3.2-5.253 7.812-8.365 12.705c2.587 28.299-9.338 48.854-27.972 60.455c35.619-6.368 42.031-37.572 36.337-73.16zm-74.233-36.938c-.946-1.527-3.079-1.408-3.952.036c-22.9 37.932-39.136 87.232 1.448 105.195c2.245 1.015 55.692-20.144 2.504-105.231z"/></svg>