<svg class="uitk-icon uitk-icon-xsmall uitk-icon-default-theme" aria-hidden="true" viewBox="0 0 24 24" xmlns="http://www.w3.org/2000/svg" xmlns:xlink="http://www.w3.org/1999/xlink"><path fill-rule="evenodd" d="M6.11 5.52A1.24 1.24 0 0 1 5 4.31v-.1c0-.7.6-1.27 1.3-1.2 1.74.14 2.92.68 4.18 1.95l6.42 6.42-.41.23c-.37.24-.6.37-1.15.37-.55 0-.78-.14-1.15-.36a3.82 3.82 0 0 0-2.18-.65c-1.11 0-1.73.37-2.19.64a1.8 1.8 0 0 1-1.15.37 1.8 1.8 0 0 1-1.15-.36 5.42 5.42 0 0 0-.77-.4L10 7.97l-1-1a4.53 4.53 0 0 0-2.89-1.45zm15.24 13.39c.38.13.65.45.65.86v.12a.97.97 0 0 1-1.3.9c-.37-.12-.65-.3-.88-.43-.37-.22-.6-.36-1.15-.36-.56 0-.78.13-1.15.36-.46.27-1.07.64-2.18.64a3.8 3.8 0 0 1-2.18-.64c-.37-.22-.6-.36-1.15-.36-.56 0-.78.13-1.15.36-.46.27-1.08.64-2.19.64a3.8 3.8 0 0 1-2.18-.64c-.37-.23-.6-.36-1.15-.36-.55 0-.78.13-1.15.35-.24.14-.52.3-.89.44a.97.97 0 0 1-1.3-.91v-.12c0-.4.27-.73.65-.86.17-.06.32-.15.5-.27.46-.27 1.08-.64 2.19-.64 1.11 0 1.73.37 2.18.64.37.23.59.36 1.15.36.56 0 .78-.13 1.15-.36.46-.27 1.08-.64 2.19-.64 1.11 0 1.73.37 2.18.64.37.22.6.36 1.15.36.55 0 .78-.13 1.15-.36.45-.27 1.07-.64 2.18-.64s1.73.37 2.18.64c.18.12.33.21.5.27zM3.11 16.34A.88.88 0 0 1 2 15.48v-.23c0-.4.27-.73.65-.86.17-.07.32-.16.5-.27a3.82 3.82 0 0 1 2.18-.64c1.11 0 1.74.37 2.19.64.37.22.6.36 1.15.36.56 0 .78-.13 1.15-.36a3.82 3.82 0 0 1 2.18-.64c1.11 0 1.73.37 2.18.64.37.22.6.36 1.15.36.55 0 .78-.13 1.15-.36a3.82 3.82 0 0 1 2.19-.64c1.1 0 1.73.37 2.18.64.19.11.34.2.5.26.38.14.65.46.65.86v.13a.98.98 0 0 1-1.31.9 4.75 4.75 0 0 1-.85-.42c-.37-.22-.6-.36-1.15-.36-.56 0-.78.13-1.15.36-.45.27-1.08.64-2.19.64a3.83 3.83 0 0 1-2.18-.64c-.37-.22-.6-.36-1.15-.36-.56 0-.78.13-1.15.36-.45.27-1.07.64-2.18.64a3.82 3.82 0 0 1-2.18-.64c-.38-.22-.6-.36-1.16-.36-.55 0-.78.13-1.15.36-.28.16-.62.36-1.09.49zM16.5 8a2.5 2.5 0 1 1 0-5 2.5 2.5 0 0 1 0 5z" clip-rule="evenodd"/></svg>