<svg class="uitk-icon uitk-icon-default-theme" aria-hidden="true" viewBox="0 0 24 24" xmlns="http://www.w3.org/2000/svg" xmlns:xlink="http://www.w3.org/1999/xlink"><path fill-rule="evenodd" d="M2.4 10.37c.5.5 1.27.53 1.81.1a12.36 12.36 0 0 1 15.56-.01c.54.44 1.34.4 1.83-.09.57-.57.53-1.5-.1-2.01a15.12 15.12 0 0 0-19 0 1.35 1.35 0 0 0-.1 2.01zm7.5 7.44 1.41 1.41c.38.37.99.37 1.36 0l1.42-1.41a.95.95 0 0 0-.22-1.52 4.16 4.16 0 0 0-3.77 0 .97.97 0 0 0-.2 1.52zm-3.6-3.58c.47.47 1.21.52 1.76.13a6.85 6.85 0 0 1 7.87 0c.55.38 1.3.34 1.77-.13h.01c.58-.58.54-1.56-.13-2.03a9.61 9.61 0 0 0-11.17 0c-.67.48-.7 1.45-.12 2.03z" clip-rule="evenodd"/></svg>