<svg class="uitk-icon uitk-spacing uitk-spacing-padding-inlineend-two" aria-hidden="true" viewBox="0 0 24 24" xmlns="http://www.w3.org/2000/svg" xmlns:xlink="http://www.w3.org/1999/xlink"><path fill-rule="evenodd" d="M21 11h-3.17l2.54-2.54a1 1 0 0 0 0-1.41 1 1 0 0 0-1.42 0L15 11h-2V9l3.95-3.95a1 1 0 0 0 0-1.42 1 1 0 0 0-1.41 0L13 6.17V3a1 1 0 0 0-1-1 1 1 0 0 0-1 1v3.17L8.46 3.63a1 1 0 0 0-1.41 0 1 1 0 0 0 0 1.42L11 9v2H9L5.05 7.05a1 1 0 0 0-1.42 0 1 1 0 0 0 0 1.41L6.17 11H3a1 1 0 0 0-1 1 1 1 0 0 0 1 1h3.17l-2.54 2.54a1 1 0 0 0 0 1.41 1 1 0 0 0 1.42 0L9 13h2v2l-3.95 3.95a1 1 0 0 0 0 1.42 1 1 0 0 0 1.41 0L11 17.83V21a1 1 0 0 0 1 1 1 1 0 0 0 1-1v-3.17l2.54 2.54a1 1 0 0 0 1.41 0 1 1 0 0 0 0-1.42L13 15v-2h2l3.95 3.95a1 1 0 0 0 1.42 0 1 1 0 0 0 0-1.41L17.83 13H21a1 1 0 0 0 1-1 1 1 0 0 0-1-1z" clip-rule="evenodd"/></svg>