<svg class="uitk-icon uitk-spacing uitk-spacing-padding-inlineend-two" aria-hidden="true" viewBox="0 0 24 24" xmlns="http://www.w3.org/2000/svg" xmlns:xlink="http://www.w3.org/1999/xlink"><path fill-rule="evenodd" d="M14.06 9c.5 0 .93-.39.94-.89a4.34 4.34 0 0 0-1.35-3.25c-.65-.72-.8-1.27-.77-1.91a.93.93 0 0 0-.94-.95c-.5 0-.93.4-.94.9a4.34 4.34 0 0 0 1.35 3.25c.61.59.78 1.27.78 1.89-.01.52.4.96.93.96zm-4 0c.5 0 .93-.39.94-.89a4.34 4.34 0 0 0-1.35-3.25c-.65-.72-.8-1.27-.77-1.91A.93.93 0 0 0 7.94 2c-.5 0-.93.4-.94.9a4.34 4.34 0 0 0 1.35 3.25c.61.59.78 1.27.78 1.89-.01.52.4.96.93.96zM20 20a1 1 0 1 1 0 2H4a1 1 0 1 1 0-2h16zm-.15-9a1 1 0 0 1 .99 1.14l-.6 4.14A2 2 0 0 1 18.28 18H9.73a2 2 0 0 1-1.98-1.72L7.3 13H4a1 1 0 1 1 0-2h15.85zm-3.91-9c.53 0 .96.43.94.95-.03.64.12 1.19.77 1.91A4.34 4.34 0 0 1 19 8.11a.93.93 0 0 1-.94.89.93.93 0 0 1-.93-.96c0-.62-.17-1.3-.78-1.89A4.34 4.34 0 0 1 15 2.9c.01-.5.44-.9.94-.9z" clip-rule="evenodd"/></svg>