<svg viewBox="0 0 200 200" width="100%" height="100%" xmlns="http://www.w3.org/2000/svg" role="presentation" style="width: inherit; height: inherit; line-height: inherit; color: inherit;"><path d="M107.89 98.006H87.094V69.029h21.03c17.454 0 18.713 28.977-.234 28.977zM170 45.461v109.778c0 9.933-4.837 14.761-14.786 14.761H44.778C34.972 170 30 165.034 30 155.239c0-116.908-1.593-115.934 3.976-121.406c5.333-5.239 3.131-3.818 120.92-3.818c10.023 0 15.104 5.197 15.104 15.446zm-30.028 38.062c0-16.364-13.114-32.259-30.911-32.259H68.36v95.843h18.5V115.66h21.351c16.159 0 31.761-13.743 31.761-32.137z"/></svg>