<svg width="16" height="17" xmlns="http://www.w3.org/2000/svg" viewBox="0 0 16 17" fill="none" role="presentation"><path d="M9.01271 13.9H8.52892V11.2264V10.5884L7.89209 10.6275C4.64948 10.827 2.83498 11.7303 1.82809 12.632C1.91218 11.6101 2.18645 10.3361 2.9221 9.21849C3.76772 7.93379 5.26589 6.78868 7.98788 6.51622L8.52813 6.46214V5.9192V3.1H9.01191L9.70951 3.80271L9.71067 3.80387L13.0289 7.12823V7.13493L13.2047 7.31066L14.0647 8.17066L14.0646 8.17068L14.0679 8.17391C14.2495 8.3527 14.2489 8.64744 14.0683 8.82488L13.6368 9.24899L13.6413 9.25347L13.2055 9.68934L13.0297 9.86507V9.87177L9.71147 13.1961L9.71032 13.1973L9.01271 13.9ZM1.79989 13.1456L1.79989 13.1455L1.79989 13.1456ZM13.1911 7.29068C13.195 7.29457 13.1932 7.29303 13.1881 7.28765L13.1907 7.29027L13.1911 7.29068Z" stroke="#192024" stroke-width="1.2"/> </svg>