<svg width="20" height="20" viewBox="0 0 24 24" xmlns="http://www.w3.org/2000/svg" class="fill" stroke=""><path d="M2.5 15.1667C2.5 15.4428 2.72386 15.6667 3 15.6667C3.27614 15.6667 3.5 15.4428 3.5 15.1667H2.5ZM3 9.5H2.5H3ZM12 1V1.5V1ZM21 9.5H21.5H21ZM20.5 15.1667C20.5 15.4428 20.7239 15.6667 21 15.6667C21.2761 15.6667 21.5 15.4428 21.5 15.1667H20.5ZM16 16.1111H16.5H16ZM16 13.2778H16.5H16ZM18 11.3889V11.8889V11.3889ZM21 11.3889H21.5C21.5 11.1127 21.2761 10.8889 21 10.8889V11.3889ZM3 16.1111H2.5H3ZM8 16.1111H8.5H8ZM8 13.2778H8.5H8ZM3 11.3889V10.8889C2.72386 10.8889 2.5 11.1127 2.5 11.3889H3ZM3.5 15.1667V9.5H2.5V15.1667H3.5ZM3.5 9.5C3.5 7.38779 4.38817 5.35588 5.97935 3.8531L5.29273 3.12609C3.50826 4.81142 2.5 7.10353 2.5 9.5H3.5ZM5.97935 3.8531C7.5715 2.3494 9.73673 1.5 12 1.5V0.5C9.48937 0.5 7.07623 1.44167 5.29273 3.12609L5.97935 3.8531ZM12 1.5C14.2633 1.5 16.4285 2.3494 18.0206 3.8531L18.7073 3.12609C16.9238 1.44167 14.5106 0.5 12 0.5V1.5ZM18.0206 3.8531C19.6118 5.35588 20.5 7.38779 20.5 9.5H21.5C21.5 7.10353 20.4917 4.81142 18.7073 3.12609L18.0206 3.8531ZM20.5 9.5V15.1667H21.5V9.5H20.5ZM20.5 16.1111C20.5 16.4699 20.3493 16.8203 20.0709 17.0833L20.7575 17.8103C21.2292 17.3648 21.5 16.7542 21.5 16.1111H20.5ZM20.0709 17.0833C19.7915 17.3471 19.4068 17.5 19 17.5V18.5C19.6541 18.5 20.2868 18.2549 20.7575 17.8103L20.0709 17.0833ZM19 17.5H18V18.5H19V17.5ZM18 17.5C17.5932 17.5 17.2085 17.3471 16.9291 17.0833L16.2425 17.8103C16.7132 18.2549 17.3459 18.5 18 18.5V17.5ZM16.9291 17.0833C16.6507 16.8203 16.5 16.4699 16.5 16.1111H15.5C15.5 16.7542 15.7708 17.3648 16.2425 17.8103L16.9291 17.0833ZM16.5 16.1111V13.2778H15.5V16.1111H16.5ZM16.5 13.2778C16.5 12.9189 16.6507 12.5686 16.9291 12.3056L16.2425 11.5786C15.7708 12.0241 15.5 12.6347 15.5 13.2778H16.5ZM16.9291 12.3056C17.2085 12.0418 17.5932 11.8889 18 11.8889V10.8889C17.3459 10.8889 16.7132 11.134 16.2425 11.5786L16.9291 12.3056ZM18 11.8889H21V10.8889H18V11.8889ZM20.5 11.3889V16.1111H21.5V11.3889H20.5ZM2.5 16.1111C2.5 16.7542 2.77076 17.3648 3.24247 17.8103L3.9291 17.0833C3.65067 16.8203 3.5 16.4699 3.5 16.1111H2.5ZM3.24247 17.8103C3.71322 18.2549 4.34589 18.5 5 18.5V17.5C4.59325 17.5 4.2085 17.3471 3.9291 17.0833L3.24247 17.8103ZM5 18.5H6V17.5H5V18.5ZM6 18.5C6.65411 18.5 7.28678 18.2549 7.75753 17.8103L7.0709 17.0833C6.7915 17.3471 6.40675 17.5 6 17.5V18.5ZM7.75753 17.8103C8.22924 17.3648 8.5 16.7542 8.5 16.1111H7.5C7.5 16.4699 7.34933 16.8203 7.0709 17.0833L7.75753 17.8103ZM8.5 16.1111V13.2778H7.5V16.1111H8.5ZM8.5 13.2778C8.5 12.6347 8.22924 12.0241 7.75753 11.5786L7.0709 12.3056C7.34933 12.5686 7.5 12.9189 7.5 13.2778H8.5ZM7.75753 11.5786C7.28678 11.134 6.65411 10.8889 6 10.8889V11.8889C6.40675 11.8889 6.7915 12.0418 7.0709 12.3056L7.75753 11.5786ZM6 10.8889H3V11.8889H6V10.8889ZM2.5 11.3889V16.1111H3.5V11.3889H2.5Z"/><path d="M14 21.5C13.7239 21.5 13.5 21.7239 13.5 22C13.5 22.2761 13.7239 22.5 14 22.5V21.5ZM20.5 15V18H21.5V15H20.5ZM17 21.5H14V22.5H17V21.5ZM20.5 18C20.5 19.933 18.933 21.5 17 21.5V22.5C19.4853 22.5 21.5 20.4853 21.5 18H20.5Z"/></svg>