<svg viewBox="0 0 200 200" width="100%" height="100%" xmlns="http://www.w3.org/2000/svg" role="presentation" style="width: inherit; height: inherit; line-height: inherit; color: inherit;"><path d="M176.302 154.383l7.396 18.582c-44.026 17.523-57.958-3.259-83.731-3.259c-25.924 0-39.721 20.819-83.673 3.28l7.412-18.576c46.895 18.714 47.886-18.144 106.122 1.099c13.323 4.4 23.846 7.88 46.474-1.126zM16.294 142.986l7.412-18.576c8.548 3.411 15.378 5.021 21.294 5.466V45c0-26.918 37.115-34.779 47.924-9.984L74.59 43.008C72.43 38.053 65 39.603 65 45v10h40V45c0-26.918 37.115-34.779 47.924-9.984l-18.334 7.992C132.43 38.053 125 39.603 125 45c0 89.294-2.044 78.237 4.828 80.509c13.323 4.401 23.846 7.88 46.474-1.126l7.396 18.582c-54.627 21.742-58.038-14.684-107.275 1.522c-14.479 4.764-30.89 10.167-60.129-1.501zM65 85h40V75H65v10zm0 42.154c11.944-3.669 23.117-8.452 40-7.273V105H65v22.154z"/></svg>