<svg viewBox="0 0 200 200" width="100%" height="100%" xmlns="http://www.w3.org/2000/svg" role="presentation" style="width: inherit; height: inherit; line-height: inherit; color: inherit;"><path d="M190 69.21l-11.274 12c-46.495-39.409-111.465-38.977-157.451 0L10 69.21c52.447-45.616 127.516-45.648 180 0zM35.108 95.932l11.275 12c32.137-24.87 75.08-24.882 107.235 0l11.275-12c-38.543-31.308-91.249-31.306-129.785 0zm24.827 26.425l11.487 12.226c17.795-10.694 39.361-10.694 57.157 0l11.486-12.225c-24.488-16.82-55.625-16.832-80.13-.001zm22.993 24.473L100 165l17.072-18.17c-11.178-4.36-22.947-4.367-34.144 0z"/></svg>